<?xml version="1.0" encoding="utf-8"?>
<!-- Generator: Adobe Illustrator 27.5.0, SVG Export Plug-In . SVG Version: 6.00 Build 0)  -->
<svg version="1.1" xmlns="http://www.w3.org/2000/svg" xmlns:xlink="http://www.w3.org/1999/xlink" x="0px" y="0px"
	 viewBox="0 0 3710 3710" style="enable-background:new 0 0 3710 3710;" xml:space="preserve">
<g id="Background">
	<g>
		<g>
			<rect style="fill:#FFFFFF;" width="3710" height="3710"/>
		</g>
	</g>
</g>
<g id="Illustration">
	<g>
		<linearGradient id="SVGID_1_" gradientUnits="userSpaceOnUse" x1="3590.9084" y1="4078.572" x2="1130.312" y2="1022.6656">
			<stop  offset="0" style="stop-color:#DAE3FE"/>
			<stop  offset="1" style="stop-color:#E9EFFD"/>
		</linearGradient>
		<path style="fill:url(#SVGID_1_);" d="M2921.844,2867.976c-56.95,59.203-110.835,97.383-153.409,127.547
			c-500.447,354.577-1092.608,251.219-1218.459,225.979c-185.842-37.273-545.072-109.32-804.788-410.914
			c-392.929-456.287-331.744-1175.153-26.962-1649.687c55.749-86.8,350.234-568.562,948.774-645.822
			c362.23-46.756,784.473,47.546,1090.25,300.516C3399.102,1346.602,3353.409,2419.331,2921.844,2867.976z"/>
		<g>
			<path style="fill:#BDD0FB;" d="M2888.275,914.003c61.123-29.488,219.161,114.932,334.216,28.297l12.252-144.708
				c0,0-170.136,63.276-246.073,36.52c-75.937-26.756-42.653-66.807,6.105-72.101c48.756-5.294,184.271,35.764,227.868-6.193
				c0,0,34.286-33.489-17.064-68.693c-51.35-35.203-43.051-144.004-17.582-184.294c0,0-26.674,8.457-95.991-0.85
				c-69.317-9.308-138.419-23.635-151.688,38.107c-13.271,61.742,1.173,146.276-36.629,155.419
				c-37.802,9.141-96.208-139.249,2.902-216.502c0,0-109.118-23.209-138.477-4.447c-29.359,18.76-47.32,85.124-1.983,169.189
				c45.339,84.065,40.929,136.148,12.578,143.004c-28.351,6.857-123.301-256.585-38.168-314.528c0,0-203.969,40.169-223.942,57.41
				c-19.973,17.239,13.293,134.555,60.462,197.01c47.166,62.456,40.56,140.48,20.164,162.717
				c-20.397,22.237-30.478-77.357-58.002-116.715c-27.523-39.358-63.535-233.584-63.535-233.584s-8.426,26.618-75.24,50.429
				c-66.814,23.809-162.923,102.07-141.527,140.909c21.397,38.839,158.75,202.337,181.164,265.612
				c22.413,63.274,26.965,118.849-5.063,96.257c-32.03-22.592-62.176-103.867-100.985-155.732
				c-38.806-51.865-155.079-172.793-139.194-214.648c0,0-157.214,107.517-122.699,282.992c0,0,68.394,66.864,156.185,86.837
				c87.793,19.973,123.779,32.277,127.313,63.433c3.532,31.156-56.962,16.777-111.33,2.917
				c-54.368-13.861-181.453-43.53-199.804-81.913c0,0,67.38,261.07,250.692,246.204c171.914-13.941,187.161-36.62,188.394-39.385
				c-3.843,10.606-117.313,332.397,265.288,329.82c0,0-87.465-23.828-97.829-83.644c-10.365-59.815-83.945-138.293-42.745-151.136
				c41.2-12.843,78.34,204.497,169.526,220.832c91.187,16.333,206.898-65.03,213.576-166.995c0,0-81.221,25.083-153.326-34.382
				c-72.106-59.465-153.146-159.204-79.5-154.357c73.645,4.847,231.651,192.881,293.48,184.844
				c61.827-8.039,121.725-218.961,121.725-218.961s-31.982,6.549-140.637-11.907c-108.657-18.457-228.409-61.831-205.119-81.813
				c23.293-19.98,99.461,13.844,168.687,41.502c69.225,27.658,165.939,24.211,182.487-11.77
				c16.548-35.979,39.481-157.788,39.481-157.788s-143.754,4.041-208.645,12.202
				C2945.151,1007.581,2827.153,943.49,2888.275,914.003z M2614.075,1238.66c-79.722-40.775-6.794-60.955,45.39-63.957
				C2699.079,1172.425,2693.795,1279.436,2614.075,1238.66z M2720.807,1106.194c-53.36-25.764-55.657-56.366-23.262-62.244
				C2771.982,1030.446,2774.167,1131.958,2720.807,1106.194z M2817.072,953.214c-29.833-12.107-38.041-24.496-8.453-45.955
				C2838.207,885.8,2846.903,965.321,2817.072,953.214z"/>
		</g>
		<g>
			<path style="fill:#91B3FA;" d="M2283.458,2818.029c0,0-473.649-1528.249-1293.772-2323.779
				c-55.131-53.478-147.549-25.137-162.755,50.149C725.251,1047.816,567.619,2564.554,2283.458,2818.029z"/>
			<path style="opacity:0.5;fill:#FFFFFF;" d="M2121.9,2728.399c4.044,3.449-0.577,9.652-5.048,6.777
				c-164.812-105.994-810.324-637.981-1111.984-1765.157c-0.969-3.62,4.332-5.386,5.61-1.862
				C1104.647,1227.789,1482.403,2183.069,2121.9,2728.399z"/>
		</g>
		<g>
			<path style="fill:#BDD0FB;" d="M1527.591,3025.615c23.381,11.781,49.576-10.107,42.285-35.253
				c-80.284-276.918-419.29-1371.434-922.563-1967.018c-35.936-42.528-104.772-28.102-120.059,25.436
				C430.637,1387.155,271.579,2392.684,1527.591,3025.615z"/>
			<path style="opacity:0.5;fill:#FFFFFF;" d="M694.686,1386.661c5.526,37.585,13.644,74.669,22.424,111.579
				c8.932,36.875,18.722,73.551,29.534,109.927c21.437,72.813,46.288,144.604,73.384,215.52
				c27.153,70.903,56.801,140.85,88.431,209.897c31.628,69.057,65.794,136.927,101.306,204.08l27.036,50.157l27.915,49.675
				l13.999,24.819l14.455,24.553l28.95,49.092c39.679,64.792,79.943,129.288,122.701,192.128
				c84.81,126.157,175.515,248.378,271.321,366.482c5.375,6.626,15.101,7.64,21.728,2.265c6.625-5.375,7.64-15.102,2.265-21.728
				c-0.035-0.043-0.131-0.159-0.166-0.202c-97.134-115.874-189.293-235.963-275.695-360.119
				c-43.555-61.844-84.646-125.368-125.191-189.235l-29.602-48.402l-14.788-24.215l-14.331-24.483l-28.595-49.016l-27.727-49.515
				c-36.444-66.305-71.575-133.375-104.198-201.68c-32.626-68.296-63.304-137.543-91.516-207.805
				c-28.158-70.275-54.1-141.488-76.66-213.793c-11.373-36.124-21.732-72.565-31.241-109.227
				c-9.354-36.683-18.062-73.62-24.172-110.968l-0.003-0.029c-0.07-0.431-0.478-0.724-0.909-0.654
				C694.912,1385.836,694.621,1386.236,694.686,1386.661z"/>
		</g>
		<g>
			<g>
				<g>
					
						<linearGradient id="SVGID_00000129207162681074020480000011695595379960942258_" gradientUnits="userSpaceOnUse" x1="2691.3149" y1="3433.9385" x2="868.9362" y2="271.5738">
						<stop  offset="0" style="stop-color:#09005D"/>
						<stop  offset="1" style="stop-color:#1A0F91"/>
					</linearGradient>
					<path style="fill:url(#SVGID_00000129207162681074020480000011695595379960942258_);" d="M1088.866,856.037
						c-9.398,379.074-39.875,1686.646-25.326,2150.01c1.541,49.09,40.893,88.49,89.981,90.096
						c242.787,7.945,941.214,28.083,1338.331,11.422c82.713-3.47,148.489-70.468,150.205-153.237
						c8.252-397.887,26.459-1516.994-16.816-2029.658c-5.185-61.425-53.396-110.34-114.733-116.476
						c-264.406-26.451-966.661-91.106-1309.745-68.842C1138.887,743.368,1090.402,794.05,1088.866,856.037z"/>
					<path style="fill:#91B3FA;" d="M1187.517,973.823c-13.261,310.459-55.086,1343.286-41.811,1725.203
						c1.94,55.822,45.937,100.959,101.698,104.222c229.584,13.435,818.447,43.06,1155.191,16.094
						c60.636-4.855,108.218-53.893,111.491-114.636c17.065-316.734,66.063-1278.44,53.337-1656.077
						c-2.031-60.243-48.697-109.443-108.733-114.834c-248.374-22.3-886.281-75.36-1172.436-59.747
						C1232.537,876.979,1189.813,920.075,1187.517,973.823z"/>
					<path style="opacity:0.5;fill:#3F67F9;" d="M1688.887,805.59L1688.887,805.59c0,11.632,9.065,21.225,20.68,21.833
						c57.345,3.003,218.886,11.501,291.08,15.689c14.234,0.826,25.407-11.969,22.707-25.97l-0.461-2.389
						c-1.842-9.554-9.765-16.744-19.454-17.632c-48.8-4.472-196.051-16.87-293.615-13.388
						C1698.104,784.152,1688.887,793.863,1688.887,805.59z"/>
				</g>
			</g>
			<g>
				<path style="opacity:0.71;fill:#FFFFFF;" d="M2458.763,1710.157H1269.018c-11.881,0-21.603-10.121-21.603-22.491l16.65-653.192
					c0.836-32.791,26.982-58.705,58.481-57.961l1142.656,46.008c32.774,7.286,32.653,56.791,32.653,97.354l-17.489,567.792
					C2480.366,1700.036,2470.645,1710.157,2458.763,1710.157z"/>
				
					<linearGradient id="SVGID_00000084511528160707959040000001751128281243997333_" gradientUnits="userSpaceOnUse" x1="1247.4156" y1="1701.7986" x2="2480.366" y2="1701.7986">
					<stop  offset="0" style="stop-color:#4F52FF"/>
					<stop  offset="1" style="stop-color:#4042E2"/>
				</linearGradient>
				<path style="fill:url(#SVGID_00000084511528160707959040000001751128281243997333_);" d="M2467.025,1742.738H1259.621
					c-6.741,0-12.205-5.464-12.205-12.205v-69.674h1232.95v68.538C2480.366,1736.765,2474.393,1742.738,2467.025,1742.738z"/>
				<path style="opacity:0.54;fill:#FFFFFF;" d="M2476.667,1706.526H1247.416v-18.209h1232.95v14.51
					C2480.366,1704.87,2478.71,1706.526,2476.667,1706.526z"/>
				<rect x="1247.416" y="1688.667" style="fill:#BDD0FB;" width="395.314" height="18.209"/>
				<circle style="fill:#FFFFFF;" cx="1637.056" cy="1698.626" r="16.734"/>
			</g>
			<g>
				<defs>
					
						<rect id="SVGID_00000172414933213306372410000000286504007013731243_" x="1198.868" y="479.743" width="1134.611" height="1178.381"/>
				</defs>
				<clipPath id="SVGID_00000040551084162247674440000002465265149711578014_">
					<use xlink:href="#SVGID_00000172414933213306372410000000286504007013731243_"  style="overflow:visible;"/>
				</clipPath>
				<g style="clip-path:url(#SVGID_00000040551084162247674440000002465265149711578014_);">
					
						<linearGradient id="SVGID_00000029768652762024577050000007181880210580374923_" gradientUnits="userSpaceOnUse" x1="6880.5708" y1="847.264" x2="6395.9199" y2="1443.0743" gradientTransform="matrix(-0.9922 -0.1247 -0.1247 0.9922 8264.5254 715.4178)">
						<stop  offset="0" style="stop-color:#FEBBBA"/>
						<stop  offset="1" style="stop-color:#FF928E"/>
					</linearGradient>
					<path style="fill:url(#SVGID_00000029768652762024577050000007181880210580374923_);" d="M1311.134,907.68
						c3.083-5.891,39.797,3.138,41.576,9.544c6.588,23.713,69.704,26.941,103.162,41.635c1.685,0.741,3.281,1.488,4.824,2.242
						c1.518-4.55,1.539-9.832-2.095-15.388c-10.403-15.897,8.376-37.607,8.376-37.607s1.243,19.121,15.779,31.16
						c12.519,10.372,18.529,33.449,9.974,52.382c-18.108,70.336-45.224,163.363,60.401,231.324
						c105.622,67.962,254.37-128.26,254.37-128.26l-73.827,234.044c0,0-113.953,84.09-246.499-34.155
						c-132.547-118.245-44.693-290.308-44.693-290.308S1266.218,993.559,1311.134,907.68z"/>
					
						<linearGradient id="SVGID_00000057859271835414690260000001397631406921731971_" gradientUnits="userSpaceOnUse" x1="-566.5626" y1="-11205.3096" x2="-295.2153" y2="-11804.9541" gradientTransform="matrix(0.9602 0.2794 -0.2794 0.9602 8902.9297 797.6744)">
						<stop  offset="0" style="stop-color:#E1473D"/>
						<stop  offset="1" style="stop-color:#E9605A"/>
					</linearGradient>
					<path style="fill:url(#SVGID_00000057859271835414690260000001397631406921731971_);" d="M1825.999,750.833
						c0,0-30.601-137.265,126.632-100.928c0,0,76.322-12.471,80.204,59.565c0,0,49.198,32.418,13.176,94.762
						c0,0,146.212-56.475,209.915,71.681c63.705,128.155,5.147,198.671-56.24,217.038c0,0,49.735,24.972,26.193,81.357
						c-23.542,56.385-142.761,96.132-213.186,27.562c0,0-200.392,26.482-196.381-115.064c0,0-93.205-60.188,4.69-177.165
						C1918.898,792.662,1825.999,750.833,1825.999,750.833z"/>
					
						<linearGradient id="SVGID_00000123439803412290901050000008158002685301902509_" gradientUnits="userSpaceOnUse" x1="2255.6497" y1="1173.8091" x2="2836.4631" y2="866.0933">
						<stop  offset="0" style="stop-color:#4F52FF"/>
						<stop  offset="1" style="stop-color:#4042E2"/>
					</linearGradient>
					<path style="fill:url(#SVGID_00000123439803412290901050000008158002685301902509_);" d="M1817.364,1069.001
						c31.596-9.472,123.591-26.96,211.095,53.792c14.84,13.696,20.905,34.506,15.613,53.995
						c-23.502,86.527-85.513,342.167-31.141,452.778c0,0-95.817,105.625-200.35,20.493c0,0-46.901-204.411-108.331-294.148
						c-42.413-61.953,67.628-232.644,95.469-273.882C1803.935,1075.784,1810.148,1071.164,1817.364,1069.001z"/>
					
						<linearGradient id="SVGID_00000077305923365753609310000013362793669585664432_" gradientUnits="userSpaceOnUse" x1="-6691.5425" y1="2317.2598" x2="-6666.2534" y2="2137.7085" gradientTransform="matrix(0.9602 0.2794 -0.2794 0.9602 8902.9297 797.6744)">
						<stop  offset="0" style="stop-color:#FEBBBA"/>
						<stop  offset="1" style="stop-color:#FF928E"/>
					</linearGradient>
					<path style="fill:url(#SVGID_00000077305923365753609310000013362793669585664432_);" d="M1904.601,897.094
						c0,0,46.728,132.172,50.243,190.482c0,0-51.644,23.484-100.307-16.153c0,0-5.105-132.018-12.483-155.658L1904.601,897.094z"/>
					
						<linearGradient id="SVGID_00000057845256877832447340000007961424706462924194_" gradientUnits="userSpaceOnUse" x1="-6807.4814" y1="1932.5322" x2="-6571.0239" y2="2204.3948" gradientTransform="matrix(0.9602 0.2794 -0.2794 0.9602 8902.9297 797.6744)">
						<stop  offset="0" style="stop-color:#FEBBBA"/>
						<stop  offset="1" style="stop-color:#FF928E"/>
					</linearGradient>
					<path style="fill:url(#SVGID_00000057845256877832447340000007961424706462924194_);" d="M1839.696,716.881
						c0,0-122.218,171.038-49.16,220.719c73.059,49.68,160.063-71.869,160.063-71.869s28.359-93.616-1.295-125.373
						C1919.651,708.599,1839.696,716.881,1839.696,716.881z"/>
					
						<linearGradient id="SVGID_00000090274683136896994830000014603894642046275751_" gradientUnits="userSpaceOnUse" x1="-742.6194" y1="-11284.9883" x2="-471.2732" y2="-11884.6309" gradientTransform="matrix(0.9602 0.2794 -0.2794 0.9602 8902.9297 797.6744)">
						<stop  offset="0" style="stop-color:#E1473D"/>
						<stop  offset="1" style="stop-color:#E9605A"/>
					</linearGradient>
					<path style="fill:url(#SVGID_00000090274683136896994830000014603894642046275751_);" d="M1896.267,676.007
						c0,0-56.146,13.304-64.016,38.707c-7.869,25.405,79.621,48.963,104.135,50.115l19.753,102.514
						c0,0,58.392-96.436,35.261-152.132C1968.271,659.515,1896.267,676.007,1896.267,676.007z"/>
					
						<linearGradient id="SVGID_00000078007857834630475460000013685895792083710890_" gradientUnits="userSpaceOnUse" x1="-6748.4043" y1="1881.1437" x2="-6511.9492" y2="2153.0039" gradientTransform="matrix(0.9602 0.2794 -0.2794 0.9602 8902.9297 797.6744)">
						<stop  offset="0" style="stop-color:#FEBBBA"/>
						<stop  offset="1" style="stop-color:#FF928E"/>
					</linearGradient>
					<path style="fill:url(#SVGID_00000078007857834630475460000013685895792083710890_);" d="M1926.906,853.145
						c0,0,47.571-55.092,66.492-19.176c18.922,35.916-42.819,62.882-64.192,45.248L1926.906,853.145z"/>
					
						<linearGradient id="SVGID_00000183957260548965902930000007089377113385753270_" gradientUnits="userSpaceOnUse" x1="5729.8926" y1="3209.5862" x2="6294.0264" y2="2213.7686" gradientTransform="matrix(-1 -0.0095 -0.0095 1 8008.4194 56.9446)">
						<stop  offset="0" style="stop-color:#FEBBBA"/>
						<stop  offset="1" style="stop-color:#FF928E"/>
					</linearGradient>
					<path style="fill:url(#SVGID_00000183957260548965902930000007089377113385753270_);" d="M1690.552,2079.24
						c0.358,9.279-15.935,82.886-24.802,122.148c-3.569,15.798-1.084,32.33,6.959,46.387l307.084,516.837
						c3.715,6.252,6.419,13.023,8.063,20.107c5.627,24.255,17.3,83.695,11.205,137.771l-15.885,32.994l68.705-15.6l14.948-184.504
						l-19.45-11.86c-16.802-10.244-29.887-25.561-37.378-43.759c-27.767-67.449-96.722-239.143-114.497-322.816
						c-20.2-95.095-125.8-172.334-125.8-172.334l18.552-43.861L1690.552,2079.24z"/>
					
						<linearGradient id="SVGID_00000116216293392501285680000001314154706067125433_" gradientUnits="userSpaceOnUse" x1="5852.8691" y1="2857.5076" x2="6017.7676" y2="2857.5076" gradientTransform="matrix(-1 -0.0095 -0.0095 1 8008.4194 56.9446)">
						<stop  offset="0" style="stop-color:#09005D"/>
						<stop  offset="1" style="stop-color:#1A0F91"/>
					</linearGradient>
					<path style="fill:url(#SVGID_00000116216293392501285680000001314154706067125433_);" d="M2128.237,2876.395
						c0,0-37.102-58.821-41.468-81.719c-4.364-22.896-16.516-63.33-39.39-51.158c0,0-10.779,111.226-7.063,154.688
						c3.715,43.46-49.131,42.062-49.131,42.062s-14.565,2.048-25.231,12.71c-7.365,7.364-2.097,20.139,8.294,20.809
						c17.294,1.114,44.763,1.406,73.605-4.167c10.081-1.947,17.552-10.524,18.163-20.773l7.614-128.012l46.8,59.094
						L2128.237,2876.395z"/>
					
						<linearGradient id="SVGID_00000060731461327670723930000010152493270828595630_" gradientUnits="userSpaceOnUse" x1="6369.1948" y1="2472.905" x2="5525.5103" y2="2742.6882" gradientTransform="matrix(-1 -0.0095 -0.0095 1 8008.4194 56.9446)">
						<stop  offset="0" style="stop-color:#FEBBBA"/>
						<stop  offset="1" style="stop-color:#FF928E"/>
					</linearGradient>
					<path style="fill:url(#SVGID_00000060731461327670723930000010152493270828595630_);" d="M1873.999,2161.567
						c0,0,10.83,462.307,12.297,527.967c1.466,65.66-10.368,211.168-76.19,254.661l28.642,21.205c0,0,35.794-30.422,70.764-88.971
						c39.283-65.775,51.162-77.791,51.162-77.791l-13.036-26.695c-5.707-11.688-7.384-24.909-4.756-37.646
						c14.203-68.844,61.656-297.826,74.6-347.138c15.28-58.209,16.366-135.943-36.791-201.012
						C1927.534,2121.077,1873.999,2161.567,1873.999,2161.567z"/>
					
						<linearGradient id="SVGID_00000005235995391614784750000011532769974263213495_" gradientUnits="userSpaceOnUse" x1="6005.752" y1="2887.2898" x2="6202.3257" y2="2887.2898" gradientTransform="matrix(-1 -0.0095 -0.0095 1 8008.4194 56.9446)">
						<stop  offset="0" style="stop-color:#09005D"/>
						<stop  offset="1" style="stop-color:#1A0F91"/>
					</linearGradient>
					<path style="fill:url(#SVGID_00000005235995391614784750000011532769974263213495_);" d="M1934.781,2986.236
						c2.042,0.019,3.777-1.443,4.065-3.465c2.192-15.413,11.309-77.203,18.771-93.204c8.548-18.323,36.468-95.446-0.016-101.994
						c0,0-90.7,132.514-108.11,150.38c-17.412,17.868-39.385,6.242-39.385,6.242s-16.964,5.012-29.756,21.361
						c-6.089,7.781-0.417,19.203,9.463,19.297l61.093,0.583c17.742,0.169,33.701-10.609,40.296-27.081
						c10.754-26.86,29.227-66.258,50.756-83.736l-11.187,107.122C1930.52,2984.128,1932.379,2986.213,1934.781,2986.236
						L1934.781,2986.236z"/>
					
						<linearGradient id="SVGID_00000101813080449195881620000003520043425043931033_" gradientUnits="userSpaceOnUse" x1="1867.7242" y1="1338.5011" x2="1902.3419" y2="2415.5054">
						<stop  offset="0" style="stop-color:#4F52FF"/>
						<stop  offset="1" style="stop-color:#4042E2"/>
					</linearGradient>
					<path style="fill:url(#SVGID_00000101813080449195881620000003520043425043931033_);" d="M1798.121,1600.212
						c0,0,13.767,43.881-7.383,116.155l-131.2,458.159c-2.062,7.199,1.823,14.734,8.872,17.263
						c39.244,14.085,168.254,53.896,344.364,41.755c8.867-0.612,16.302-6.889,18.23-15.566
						c11.604-52.231,51.196-230.441,59.348-267.058c31.062-139.525,65.745-289.99-86.831-380.973
						C1933.202,1600.066,1867.618,1617.818,1798.121,1600.212z"/>
					
						<linearGradient id="SVGID_00000157266910273122070710000014269832258317860018_" gradientUnits="userSpaceOnUse" x1="5903.6255" y1="1701.525" x2="6839.458" y2="631.0706" gradientTransform="matrix(-0.9922 -0.1247 -0.1247 0.9922 8264.5254 715.4178)">
						<stop  offset="0" style="stop-color:#FEBBBA"/>
						<stop  offset="1" style="stop-color:#FF928E"/>
					</linearGradient>
					<path style="fill:url(#SVGID_00000157266910273122070710000014269832258317860018_);" d="M2040.979,1140.059
						c0,0,149.277,124.055,186.323,293.576c37.046,169.519-218.132,187.536-218.132,187.536s-34.641-38.684-75.768-24.887
						c-41.126,13.796-3.185-67.512,44.935-67.299c48.118,0.214,25.828,38.261,93.897,7.427
						c66.311-30.036,107.296-122.929-61.889-263.743c-9.807-8.162-17.633-18.568-22.344-30.426
						C1955.133,1159.506,1981.202,1105.272,2040.979,1140.059z"/>
				</g>
				<g style="clip-path:url(#SVGID_00000040551084162247674440000002465265149711578014_);">
					
						<linearGradient id="SVGID_00000031930312983652492360000018179495207829347477_" gradientUnits="userSpaceOnUse" x1="1499.2162" y1="331.2328" x2="1328.5127" y2="836.405">
						<stop  offset="0" style="stop-color:#CB236D"/>
						<stop  offset="1" style="stop-color:#4C246D"/>
					</linearGradient>
					<path style="fill:url(#SVGID_00000031930312983652492360000018179495207829347477_);" d="M1476.421,631.283
						c-0.032-0.827-3.63-83.019-39.433-112.52c-10.518-8.667-22.951-11.962-36.946-9.797
						c-70.887,10.971-68.297,121.061-68.262,122.172l-4.162,0.129c-0.009-0.285-0.789-28.89,7.517-58.506
						c11.117-39.64,33.341-63.122,64.271-67.909c15.222-2.356,28.76,1.245,40.234,10.702
						c37.243,30.693,40.809,112.118,40.943,115.569L1476.421,631.283z"/>
					
						<linearGradient id="SVGID_00000145746857429153191640000002771785125932939652_" gradientUnits="userSpaceOnUse" x1="1377.9369" y1="359.2864" x2="1377.9369" y2="1037.6168">
						<stop  offset="0" style="stop-color:#FF928E"/>
						<stop  offset="1" style="stop-color:#FE7062"/>
					</linearGradient>
					<path style="fill:url(#SVGID_00000145746857429153191640000002771785125932939652_);" d="M1258.855,597.12l219.579-3.629
						l64.464,365.557h-328.143c-11.211,0,34.005-318.882,39.588-357.954C1254.665,598.838,1256.577,597.158,1258.855,597.12z"/>
					
						<linearGradient id="SVGID_00000091704838994638401600000017833107882608569742_" gradientUnits="userSpaceOnUse" x1="1899.8226" y1="-419.7009" x2="1774.2058" y2="-7.6773">
						<stop  offset="0" style="stop-color:#FF928E"/>
						<stop  offset="1" style="stop-color:#FE7062"/>
					</linearGradient>
					<path style="fill:url(#SVGID_00000091704838994638401600000017833107882608569742_);" d="M1517.078,596.78l-38.644-3.289
						l64.464,365.557h43.165c5.037,0,8.807-4.619,7.798-9.554l-71.055-347.619C1522.237,599.094,1519.906,597.02,1517.078,596.78z"
						/>
					
						<linearGradient id="SVGID_00000081629682142017734750000011576149505797865902_" gradientUnits="userSpaceOnUse" x1="1337.0802" y1="675.4775" x2="1166.377" y2="1180.6492">
						<stop  offset="0" style="stop-color:#CB236D"/>
						<stop  offset="1" style="stop-color:#4C246D"/>
					</linearGradient>
					<path style="fill:url(#SVGID_00000081629682142017734750000011576149505797865902_);" d="M1430.905,630.408
						c-0.032-0.827-3.63-83.019-39.433-112.52c-10.519-8.667-22.951-11.962-36.946-9.796
						c-70.887,10.97-68.297,121.061-68.262,122.172l-4.162,0.129c-0.009-0.285-0.789-28.89,7.516-58.506
						c11.117-39.64,33.341-63.122,64.271-67.909c15.223-2.355,28.759,1.244,40.234,10.702
						c37.243,30.692,40.809,112.118,40.943,115.569L1430.905,630.408z"/>
				</g>
			</g>
			<g>
				<g>
					<path style="opacity:0.54;fill:#FFFFFF;" d="M2444.814,2103.275l-444.496-3.158c-16.249-0.115-29.328-13.382-29.212-29.63
						l1.714-241.226c0.115-16.249,13.381-29.328,29.63-29.212l466.288,3.193c8.05,0.055,14.471,6.738,14.204,14.784l-8.497,256.038
						C2474.329,2090.312,2461.063,2103.391,2444.814,2103.275z"/>
					<path style="opacity:0.54;fill:#FFFFFF;" d="M2471.296,2164.77l-498.33-3.541c-1.383-0.01-2.496-1.139-2.487-2.522l0.22-31.041
						c0.01-1.383,1.139-2.497,2.522-2.487l498.33,3.541c1.383,0.01,2.496,1.139,2.487,2.522l-0.22,31.041
						C2473.808,2163.667,2472.679,2164.78,2471.296,2164.77z"/>
					<path style="opacity:0.54;fill:#FFFFFF;" d="M2330.66,2223.785l-356.682-2.534c-2.177-0.015-3.93-1.793-3.915-3.971l0.2-28.165
						c0.016-2.177,1.793-3.93,3.971-3.915l356.682,2.534c2.177,0.016,3.93,1.793,3.915,3.971l-0.2,28.165
						C2334.615,2222.048,2332.837,2223.801,2330.66,2223.785z"/>
					<path style="fill-rule:evenodd;clip-rule:evenodd;fill:#FFFFFF;" d="M2190.24,1987.938l0.519-73.023
						c0.055-7.803,8.583-12.578,15.265-8.549l61.272,36.949c6.545,3.947,6.478,13.461-0.123,17.314l-61.791,36.075
						C2198.643,2000.637,2190.184,1995.741,2190.24,1987.938z"/>
				</g>
				<g>
					<path style="opacity:0.54;fill:#FFFFFF;" d="M2438.091,2611.843l-486.121-3.454c-4.755-0.034-8.582-3.916-8.548-8.67
						l2.01-282.851c0.034-4.755,3.916-8.582,8.67-8.548l486.121,3.454c4.754,0.034,8.582,3.916,8.548,8.67l-2.01,282.851
						C2446.727,2608.05,2442.845,2611.877,2438.091,2611.843z"/>
					<path style="opacity:0.54;fill:#FFFFFF;" d="M2443.76,2673.19l-498.33-3.541c-1.383-0.01-2.496-1.139-2.487-2.522l0.221-31.041
						c0.01-1.383,1.139-2.496,2.522-2.486l498.33,3.541c1.383,0.01,2.496,1.139,2.487,2.522l-0.221,31.041
						C2446.272,2672.086,2445.143,2673.2,2443.76,2673.19z"/>
					<path style="fill-rule:evenodd;clip-rule:evenodd;fill:#FFFFFF;" d="M2162.704,2496.358l0.519-73.023
						c0.055-7.803,8.583-12.579,15.265-8.549l61.272,36.949c6.545,3.947,6.478,13.461-0.123,17.314l-61.791,36.075
						C2171.107,2509.058,2162.648,2504.161,2162.704,2496.358z"/>
				</g>
				<path style="opacity:0.54;fill:#FFFFFF;" d="M1840.198,1851.719l-573.73-4.076c-2.344-0.017-4.23-1.93-4.213-4.273l0.243-34.206
					c0.017-2.344,1.93-4.23,4.273-4.213l573.73,4.076c2.344,0.017,4.23,1.93,4.213,4.273l-0.243,34.206
					C1844.455,1849.849,1842.542,1851.736,1840.198,1851.719z"/>
				<path style="opacity:0.54;fill:#FFFFFF;" d="M1837.861,2180.679l-573.73-4.076c-2.344-0.017-4.23-1.93-4.213-4.273l0.243-34.206
					c0.017-2.344,1.93-4.23,4.273-4.213l573.73,4.076c2.344,0.017,4.23,1.93,4.213,4.274l-0.243,34.206
					C1842.118,2178.809,1840.205,2180.696,1837.861,2180.679z"/>
				<path style="opacity:0.54;fill:#FFFFFF;" d="M1843.08,2087.454l-573.73-4.076c-2.344-0.017-4.23-1.93-4.213-4.273l0.243-34.206
					c0.017-2.344,1.93-4.23,4.274-4.213l573.73,4.076c2.344,0.017,4.23,1.93,4.213,4.273l-0.243,34.206
					C1847.337,2085.584,1845.424,2087.471,1843.08,2087.454z"/>
				<path style="opacity:0.54;fill:#FFFFFF;" d="M1837.234,2268.968l-573.73-4.076c-2.344-0.017-4.23-1.93-4.213-4.273l0.243-34.206
					c0.017-2.344,1.93-4.23,4.273-4.213l573.73,4.076c2.344,0.017,4.23,1.93,4.213,4.273l-0.243,34.206
					C1841.491,2267.098,1839.577,2268.984,1837.234,2268.968z"/>
				<path style="opacity:0.54;fill:#FFFFFF;" d="M1836.582,2360.674l-573.73-4.076c-2.344-0.017-4.23-1.93-4.213-4.273l0.243-34.206
					c0.017-2.344,1.93-4.23,4.273-4.213l573.73,4.076c2.344,0.017,4.23,1.93,4.213,4.273l-0.243,34.206
					C1840.839,2358.804,1838.926,2360.691,1836.582,2360.674z"/>
				<path style="opacity:0.54;fill:#FFFFFF;" d="M1835.955,2448.963l-573.73-4.076c-2.344-0.017-4.23-1.93-4.213-4.273l0.243-34.206
					c0.017-2.344,1.93-4.23,4.273-4.213l573.73,4.076c2.344,0.017,4.23,1.93,4.213,4.273l-0.243,34.206
					C1840.212,2447.093,1838.298,2448.979,1835.955,2448.963z"/>
				<path style="opacity:0.54;fill:#FFFFFF;" d="M1835.273,2544.875l-573.73-4.076c-2.344-0.017-4.23-1.93-4.213-4.273l0.243-34.206
					c0.017-2.344,1.93-4.23,4.273-4.213l573.73,4.076c2.344,0.017,4.23,1.93,4.213,4.273l-0.243,34.206
					C1839.53,2543.005,1837.617,2544.891,1835.273,2544.875z"/>
				<path style="opacity:0.54;fill:#FFFFFF;" d="M1834.646,2633.163l-573.73-4.076c-2.344-0.017-4.23-1.93-4.213-4.273l0.243-34.206
					c0.017-2.344,1.93-4.23,4.274-4.213l573.729,4.076c2.344,0.017,4.23,1.93,4.213,4.273l-0.243,34.206
					C1838.903,2631.294,1836.99,2633.18,1834.646,2633.163z"/>
				<path style="opacity:0.54;fill:#FFFFFF;" d="M1833.995,2724.87l-573.73-4.076c-2.344-0.017-4.23-1.93-4.213-4.273l0.243-34.206
					c0.017-2.344,1.93-4.23,4.274-4.213l573.73,4.076c2.344,0.017,4.23,1.93,4.213,4.273l-0.243,34.206
					C1838.251,2723,1836.338,2724.886,1833.995,2724.87z"/>
				<path style="opacity:0.54;fill:#FFFFFF;" d="M1689.083,1926.244l-421.211-2.993c-3.415-0.024-6.164-2.813-6.14-6.228
					l0.216-30.324c0.024-3.415,2.813-6.164,6.228-6.14l421.211,2.993c3.415,0.024,6.164,2.813,6.14,6.228l-0.215,30.325
					C1695.287,1923.519,1692.498,1926.268,1689.083,1926.244z"/>
			</g>
		</g>
		<g>
			<g>
				
					<linearGradient id="SVGID_00000166637276891849200480000004771145265041811334_" gradientUnits="userSpaceOnUse" x1="-798.8036" y1="3098.4541" x2="-1370.0205" y2="3719.7783" gradientTransform="matrix(-1 0 0 1 1826.2692 0)">
					<stop  offset="0" style="stop-color:#09005D"/>
					<stop  offset="1" style="stop-color:#1A0F91"/>
				</linearGradient>
				<path style="fill:url(#SVGID_00000166637276891849200480000004771145265041811334_);" d="M2805.635,3144.74
					c0,0,5.916,33.489,8.816,66.64c1.134,12.955-8.856,24.205-21.85,24.746c-44.147,1.84-138.581,5.414-172.467,3.902
					c-5.094-0.227-8.425-5.443-6.539-10.18l0,0c1.579-3.97,4.626-7.18,8.509-8.964l155.986-71.691L2805.635,3144.74z"/>
				
					<linearGradient id="SVGID_00000021113660725360158550000001283474284295491719_" gradientUnits="userSpaceOnUse" x1="-984.2123" y1="3144.6011" x2="-933.4739" y2="3144.6011" gradientTransform="matrix(-1 0 0 1 1826.2692 0)">
					<stop  offset="0" style="stop-color:#FEBBBA"/>
					<stop  offset="1" style="stop-color:#FF928E"/>
				</linearGradient>
				<path style="fill:url(#SVGID_00000021113660725360158550000001283474284295491719_);" d="M2810.481,3125.062l-4.753,40.058
					c0,0-27.324,12.719-45.985-1.602l11.316-44.642L2810.481,3125.062z"/>
				
					<linearGradient id="SVGID_00000046320133042066558360000001574069908192699323_" gradientUnits="userSpaceOnUse" x1="895.6867" y1="8316.9248" x2="1604.1692" y2="7593.3682" gradientTransform="matrix(1 0 0 1 -3527.4583 0)">
					<stop  offset="0" style="stop-color:#09005D"/>
					<stop  offset="1" style="stop-color:#1A0F91"/>
				</linearGradient>
				<path style="fill:url(#SVGID_00000046320133042066558360000001574069908192699323_);" d="M2806.91,2371.96
					c2.053,10.461,11.02,522.022-43.662,751.272c-0.893,3.74,1.003,7.595,4.563,9.05c8.388,3.427,24.83,8.389,44.534,9.051
					c6.103,0.205,11.575-3.761,13.296-9.618c15.63-53.19,90.53-319.682,100.302-574.254c10.917-284.46,0-9.686,0-9.686
					l-6.404-175.835L2806.91,2371.96z"/>
				
					<linearGradient id="SVGID_00000095322301364831014140000009369650471639469247_" gradientUnits="userSpaceOnUse" x1="-926.9493" y1="2980.6472" x2="-1498.1614" y2="3601.9661" gradientTransform="matrix(-1 0 0 1 1826.2692 0)">
					<stop  offset="0" style="stop-color:#09005D"/>
					<stop  offset="1" style="stop-color:#1A0F91"/>
				</linearGradient>
				<path style="fill:url(#SVGID_00000095322301364831014140000009369650471639469247_);" d="M2985.072,3162.21
					c0,0,9.416,16.907,18.533,61.832c1.645,8.114-4.023,15.878-12.262,16.688c-14.577,1.433-37.02,3.276-54.995,3.154
					c-8.287-0.057-14.754-7.273-13.755-15.5c1.991-16.398,8.195-43.302,27.358-64.271L2985.072,3162.21z"/>
				
					<linearGradient id="SVGID_00000029756979254365649340000016364791860614259588_" gradientUnits="userSpaceOnUse" x1="-1167.0728" y1="3141.9993" x2="-1123.2651" y2="3141.9993" gradientTransform="matrix(-1 0 0 1 1826.2692 0)">
					<stop  offset="0" style="stop-color:#FEBBBA"/>
					<stop  offset="1" style="stop-color:#FF928E"/>
				</linearGradient>
				<path style="fill:url(#SVGID_00000029756979254365649340000016364791860614259588_);" d="M2993.342,3110.687l-11.106,60.579
					c0,0-10.979,8.168-32.701,2.246l5.301-65.178L2993.342,3110.687z"/>
				
					<linearGradient id="SVGID_00000000202649813753461350000015006690051824967084_" gradientUnits="userSpaceOnUse" x1="934.9295" y1="8355.3818" x2="1643.4111" y2="7631.8257" gradientTransform="matrix(1 0 0 1 -3527.4583 0)">
					<stop  offset="0" style="stop-color:#09005D"/>
					<stop  offset="1" style="stop-color:#1A0F91"/>
				</linearGradient>
				<path style="fill:url(#SVGID_00000000202649813753461350000015006690051824967084_);" d="M3023.343,2387.659
					c44.724,269.904-9.7,667.091-28.057,744.83c-1.124,4.759-4.965,8.405-9.788,9.206c-8.193,1.358-21.682,2.466-34.981-1.396
					c-4.582-1.329-7.8-5.464-7.987-10.231c-2.462-62.85,1.97-448.686-39.701-601.17c-2.113-7.727-6.832-14.467-13.361-19.108
					l-80.881-57.5l-6.202-92.943L3023.343,2387.659z"/>
				
					<linearGradient id="SVGID_00000121257947340010537530000012859395321792972221_" gradientUnits="userSpaceOnUse" x1="3582.4124" y1="2171.1499" x2="3222.1909" y2="2760.0825" gradientTransform="matrix(1 0 0 1 -711.9016 0)">
					<stop  offset="0" style="stop-color:#4F52FF"/>
					<stop  offset="1" style="stop-color:#4042E2"/>
				</linearGradient>
				<path style="fill:url(#SVGID_00000121257947340010537530000012859395321792972221_);" d="M2759.743,1885.869
					c0,0,205.454-51.202,349.138,24.893l-85.538,476.897c0,0-136.085,10.971-220.957-16.027L2759.743,1885.869z"/>
				
					<linearGradient id="SVGID_00000072999979760949104390000010676956715449380013_" gradientUnits="userSpaceOnUse" x1="-1479.6365" y1="2010.1962" x2="-1359.293" y2="2010.1962" gradientTransform="matrix(-0.9887 0.1496 0.1496 0.9887 1237.9482 52.3657)">
					<stop  offset="0" style="stop-color:#FEBBBA"/>
					<stop  offset="1" style="stop-color:#FF928E"/>
				</linearGradient>
				<path style="fill:url(#SVGID_00000072999979760949104390000010676956715449380013_);" d="M2990.166,1742.99l15.721,135.327
					c1.005,1.914,0.513,4.277-1.201,5.594c-10.533,8.095-49.162,32.73-103.852,8.641c-5.697-2.509-10.05-7.349-11.763-13.334
					l22.248-117.281L2990.166,1742.99z"/>
				<g>
					
						<linearGradient id="SVGID_00000076594680306690636640000001147301009742172066_" gradientUnits="userSpaceOnUse" x1="-6983.0952" y1="-2285.0957" x2="-7031.5625" y2="-2444.9519" gradientTransform="matrix(-0.9037 -0.428 -0.428 0.9037 -4419.7173 853.2395)">
						<stop  offset="0" style="stop-color:#FEBBBA"/>
						<stop  offset="1" style="stop-color:#FF928E"/>
					</linearGradient>
					<path style="fill:url(#SVGID_00000076594680306690636640000001147301009742172066_);" d="M2864.055,1672.442
						c0,0-20.014,97.789-4.195,130.25c15.818,32.461,70.768,13.61,111.212-28.45l7.077-101.309L2864.055,1672.442z"/>
					
						<linearGradient id="SVGID_00000048503066532421068660000012770927690205161365_" gradientUnits="userSpaceOnUse" x1="-7026.8203" y1="-2563.6223" x2="-6986.2778" y2="-2332.3811" gradientTransform="matrix(-0.9037 -0.428 -0.428 0.9037 -4419.7173 853.2395)">
						<stop  offset="0" style="stop-color:#09005D"/>
						<stop  offset="1" style="stop-color:#1A0F91"/>
					</linearGradient>
					<path style="fill:url(#SVGID_00000048503066532421068660000012770927690205161365_);" d="M2955.716,1730.036
						c-2.233-0.293-3.675-2.495-3.024-4.652c1.979-6.557,5.422-19.762,4.682-30.216c0,0,6.552-7.55-24.095-5.97
						c-30.648,1.579-76.472,3.518-92.624-18.207c-15.747-21.181-10.358-87.701,40.34-50.896c1.929,1.401,4.674,0.635,5.534-1.589
						c3.708-9.595,14.73-30.493,39.575-27.11c23.25,3.165,29.996,17.532,31.948,25.201c0.575,2.255,3.081,3.403,5.151,2.339
						c9.8-5.038,34.214-14.078,53.372,8.056c15.781,18.232,13.065,31.984,9.111,39.483c-1.282,2.429,0.44,5.301,3.188,5.331
						c7.438,0.079,17.954,3.27,21.781,19.516c5.292,22.462-19.994,27.792-27.326,28.857c-1.2,0.176-2.245,0.913-2.772,2.006
						c-4.066,8.453-22.896,44.805-51.307,56.885c-2.46,1.048-5.175-0.887-5.055-3.558l1.831-40.756
						c0.085-1.893-1.292-3.536-3.171-3.783L2955.716,1730.036z"/>
					
						<linearGradient id="SVGID_00000074418660031997877860000011843981080049047998_" gradientUnits="userSpaceOnUse" x1="-7032.6401" y1="-2285.8403" x2="-7076.2476" y2="-2429.667" gradientTransform="matrix(-0.9037 -0.428 -0.428 0.9037 -4419.7173 853.2395)">
						<stop  offset="0" style="stop-color:#FEBBBA"/>
						<stop  offset="1" style="stop-color:#FF928E"/>
					</linearGradient>
					<path style="fill:url(#SVGID_00000074418660031997877860000011843981080049047998_);" d="M2952.146,1736.797
						c0,0,25.521-31.367,33.3-13.574c7.78,17.791-20.917,35.25-38.37,32.904L2952.146,1736.797z"/>
				</g>
				
					<linearGradient id="SVGID_00000093868558162388920080000007668233324272481964_" gradientUnits="userSpaceOnUse" x1="1419.5658" y1="2393.6287" x2="1426.6769" y2="2097.7998" gradientTransform="matrix(1 0 0 1 1664.1465 0)">
					<stop  offset="0" style="stop-color:#FEBBBA"/>
					<stop  offset="1" style="stop-color:#FF928E"/>
				</linearGradient>
				<path style="fill:url(#SVGID_00000093868558162388920080000007668233324272481964_);" d="M3146.461,2172.542
					c0,0-14.01,179.081-131.9,186.804c0,0-50.528-4.633-72.462,12.593c-21.933,17.225-11.304,43.762-11.304,43.762l95.113-11.597
					c0,0,136.027,22.649,217.817-205.036L3146.461,2172.542z"/>
				
					<linearGradient id="SVGID_00000134941161916036834980000013477732992994829708_" gradientUnits="userSpaceOnUse" x1="3753.2114" y1="2275.6177" x2="3392.99" y2="2864.5498" gradientTransform="matrix(1 0 0 1 -711.9016 0)">
					<stop  offset="0" style="stop-color:#4F52FF"/>
					<stop  offset="1" style="stop-color:#4042E2"/>
				</linearGradient>
				<path style="fill:url(#SVGID_00000134941161916036834980000013477732992994829708_);" d="M3108.881,1910.762
					c0,0,161.369,95.991,134.843,288.306c0,0-57.646,24.985-99.56-8.508c0,0-32.662-124.948-103.604-131.167L3108.881,1910.762z"/>
				
					<linearGradient id="SVGID_00000121989709089812037650000003945818932235189895_" gradientUnits="userSpaceOnUse" x1="846.4107" y1="2060.8682" x2="851.9997" y2="1828.3593" gradientTransform="matrix(1 0 0 1 1664.1465 0)">
					<stop  offset="0" style="stop-color:#FEBBBA"/>
					<stop  offset="1" style="stop-color:#FF928E"/>
				</linearGradient>
				<path style="fill:url(#SVGID_00000121989709089812037650000003945818932235189895_);" d="M2652.532,1979.577
					c0,0-77.493,36.018-168.125-60.14c-61.941-65.718-99.837-25.423-111.813,1.105c-11.978,26.527,16.673,24.317,26.663,24.317
					c9.991,0,11.231-28.86,28.849-24.93c17.617,3.931,12.434-1.331,13.539,16.353s95.814,217.385,212.972,120.122L2652.532,1979.577
					z"/>
				<g>
					
						<linearGradient id="SVGID_00000043428965657742746710000001519347083999398048_" gradientUnits="userSpaceOnUse" x1="3158.1223" y1="-36.0711" x2="3032.5054" y2="375.953">
						<stop  offset="0" style="stop-color:#FF928E"/>
						<stop  offset="1" style="stop-color:#FE7062"/>
					</linearGradient>
					<path style="fill:url(#SVGID_00000043428965657742746710000001519347083999398048_);" d="M2296.167,2007.479l266.283-14.935
						c24.28-1.361,45.578,14.281,48.685,35.755l59.631,412.174c3.554,24.571-17.948,46.331-45.783,46.331h-347.455
						c-26.367,0-47.376-19.625-46.106-43.064l21.543-397.239C2254.098,2025.599,2272.701,2008.795,2296.167,2007.479z"/>
					
						<linearGradient id="SVGID_00000135688639886548606930000007590617810540515230_" gradientUnits="userSpaceOnUse" x1="2629.8772" y1="1129.5945" x2="2489.1794" y2="1739.2861">
						<stop  offset="0" style="stop-color:#A737D5"/>
						<stop  offset="1" style="stop-color:#EF497A"/>
					</linearGradient>
					<path style="fill:url(#SVGID_00000135688639886548606930000007590617810540515230_);" d="M2341.138,2049.357
						c-4.092,0-7.492-3.228-7.661-7.354c-0.223-5.292-4.396-129.793,83.227-143.487c18.747-2.914,35.378,1.479,49.438,13.095
						c42.656,35.255,46.261,125.965,46.394,129.808c0.147,4.237-3.168,7.785-7.403,7.934c-4.206,0.065-7.788-3.168-7.936-7.405
						c-0.03-0.87-3.503-87.672-40.848-118.515c-10.665-8.814-22.866-11.987-37.276-9.748
						c-74.234,11.597-70.31,126.519-70.262,127.679c0.177,4.236-3.113,7.809-7.347,7.989
						C2341.353,2049.357,2341.245,2049.357,2341.138,2049.357z"/>
				</g>
				
					<linearGradient id="SVGID_00000167386700864005844880000008013277807061438856_" gradientUnits="userSpaceOnUse" x1="3396.844" y1="2057.6467" x2="3036.6233" y2="2646.5784" gradientTransform="matrix(1 0 0 1 -711.9016 0)">
					<stop  offset="0" style="stop-color:#4F52FF"/>
					<stop  offset="1" style="stop-color:#4042E2"/>
				</linearGradient>
				<path style="fill:url(#SVGID_00000167386700864005844880000008013277807061438856_);" d="M2759.743,1885.869l-125.021,93.708
					c0,0-2.211,70.204,14.368,103.401l139.263-34.225L2759.743,1885.869z"/>
			</g>
			<g>
				<g>
					<g>
						<g>
							<g>
								<path style="fill:#7D97F4;" d="M1964.533,2619.451v111.006c0,41.34,15.547,81.155,37.957,115.879l21.207,27.125
									c24.552,38.012,66.58,59.751,111.82,59.751H2600l3.518-11.941l113.845-417.089l95.529-51.507l-14.225-26.014
									l-106.733,57.871l-36.599,134.919H1964.533z M1997.677,2652.595h649.513l-45.813,169.014l-24.169,89.508h-441.691
									c-35.068,0-67.988-20.519-86.995-49.965l-19.305-30.784c-19.313-29.867-31.54-64.345-31.54-99.911V2652.595z"/>
							</g>
							<g>
								<path style="fill:#7D97F4;" d="M2028.67,3084.589c0,8.222,6.692,16.553,14.951,16.553h544.983
									c8.261,0,14.5-11.67,14.5-19.892v-256.984c0-2.831-0.559-2.541-1.935-4.797l-23.961,91.649h-7.248v156.881h-526.339
									C2035.362,3067.998,2028.67,3076.329,2028.67,3084.589z"/>
							</g>
						</g>
						<g>
							<rect x="2311.335" y="2635.053" style="fill:#7D97F4;" width="19.894" height="279.746"/>
							<g>
								<rect x="2487.057" y="2635.053" style="fill:#7D97F4;" width="19.893" height="279.746"/>
								<rect x="2139.758" y="2635.053" style="fill:#7D97F4;" width="19.894" height="279.746"/>
							</g>
						</g>
						<g>
							<rect x="1992.588" y="2717.344" style="fill:#7D97F4;" width="647.045" height="17.79"/>
							<rect x="2008.795" y="2814.72" style="fill:#7D97F4;" width="602.594" height="17.791"/>
						</g>
					</g>
					<path style="fill:#7D97F4;" d="M2454.545,3185.825c0,35.49,28.77,64.258,64.257,64.258c35.49,0,64.258-28.768,64.258-64.258
						c0-35.487-28.768-64.257-64.258-64.257C2483.315,3121.569,2454.545,3150.338,2454.545,3185.825z M2480.019,3185.825
						c0-21.419,17.364-38.783,38.783-38.783c21.419,0,38.785,17.365,38.785,38.783c0,21.42-17.366,38.785-38.785,38.785
						C2497.382,3224.61,2480.019,3207.246,2480.019,3185.825z"/>
					<path style="fill:#7D97F4;" d="M2055.231,3185.825c0,35.49,28.77,64.258,64.257,64.258c35.49,0,64.258-28.768,64.258-64.258
						c0-35.487-28.768-64.257-64.258-64.257C2084.001,3121.569,2055.231,3150.338,2055.231,3185.825z M2080.705,3185.825
						c0-21.419,17.364-38.783,38.783-38.783c21.419,0,38.784,17.365,38.784,38.783c0,21.42-17.365,38.785-38.784,38.785
						C2098.068,3224.61,2080.705,3207.246,2080.705,3185.825z"/>
				</g>
				<path style="fill:#7D97F4;" d="M2732.462,2452.658c0,16.673,13.517,30.188,30.189,30.188h100.453
					c16.673,0,30.189-13.516,30.189-30.188l0,0c0-16.674-13.517-30.189-30.189-30.189h-100.453
					C2745.979,2422.469,2732.462,2435.984,2732.462,2452.658L2732.462,2452.658z"/>
			</g>
		</g>
	</g>
</g>
</svg>
